<svg xmlns="http://www.w3.org/2000/svg" xmlns:xlink="http://www.w3.org/1999/xlink" xmlns:lucid="lucid" width="1300" height="1300" viewBox='0 0 1300 1800'><g transform="translate(-160 460)" lucid:page-tab-id="0_0"><path d="M620-454a6 6 0 0 1 6-6h348a6 6 0 0 1 6 6v48a6 6 0 0 1-6 6H626a6 6 0 0 1-6-6z" fill="none"/><use xlink:href="#a" transform="matrix(1,0,0,1,620,-460) translate(49.74283854166666 21.52777777777778)"/><use xlink:href="#b" transform="matrix(1,0,0,1,620,-460) translate(147.6052517361111 21.52777777777778)"/><use xlink:href="#c" transform="matrix(1,0,0,1,620,-460) translate(126.81532118055556 48.415798611111114)"/><use xlink:href="#d" transform="matrix(1,0,0,1,620,-460) translate(180 75.30381944444446)"/><path d="M840-340c22.1 0 40 17.9 40 40s-17.9 40-40 40h-80c-22.1 0-40-17.9-40-40s17.9-40 40-40z" stroke="#3a414a" stroke-width="2" fill="#fff"/><use xlink:href="#e" transform="matrix(1,0,0,1,725,-335) translate(36.48003472222223 43.40277777777778)"/><path d="M189.18 85.3A10 10 0 0 1 198 80h84a10 10 0 0 1 8.82 5.3l26.36 49.4a11.25 11.25 0 0 1 0 10.6l-26.36 49.4A10 10 0 0 1 282 200h-84a10 10 0 0 1-8.82-5.3l-26.36-49.4a11.25 11.25 0 0 1 0-10.6z" stroke="#3a414a" stroke-width="2" fill="#fff"/><use xlink:href="#f" transform="matrix(1,0,0,1,165,85) translate(49.40278645833333 62.77777777777778)"/><path d="M189.18 245.3A10 10 0 0 1 198 240h84a10 10 0 0 1 8.82 5.3l26.36 49.4a11.25 11.25 0 0 1 0 10.6l-26.36 49.4A10 10 0 0 1 282 360h-84a10 10 0 0 1-8.82-5.3l-26.36-49.4a11.25 11.25 0 0 1 0-10.6z" stroke="#3a414a" stroke-width="2" fill="#fff"/><use xlink:href="#g" transform="matrix(1,0,0,1,165,245) translate(43.20161458333333 62.77777777777778)"/><path d="M320.45 299h62.78a6 6 0 0 0 6-6v-67a6 6 0 0 1 6-6h45.27" stroke="#5e5e5e" stroke-width="2" fill="none"/><path d="M320.48 299.98h-.98l-.06-1.18-.1-.78h1.14z" stroke="#5e5e5e" stroke-width=".05" fill="#5e5e5e"/><path d="M455.76 220l-14.26 4.63v-9.26z" stroke="#5e5e5e" stroke-width="2" fill="#5e5e5e"/><path d="M320.5 140h62.75a6 6 0 0 1 6 6v68a6 6 0 0 0 6 6h45.25" stroke="#5e5e5e" stroke-width="2" fill="none"/><path d="M320.53 140.97h-1.08l.05-.97-.05-.97h1.08z" stroke="#5e5e5e" stroke-width=".05" fill="#5e5e5e"/><path d="M455.76 220l-14.26 4.63v-9.26z" stroke="#5e5e5e" stroke-width="2" fill="#5e5e5e"/><path d="M460 166a6 6 0 0 1 6-6h148a6 6 0 0 1 6 6v108a6 6 0 0 1-6 6H466a6 6 0 0 1-6-6z" stroke="#3a414a" stroke-width="2" fill="#fff"/><use xlink:href="#h" transform="matrix(1,0,0,1,472,172) translate(19.687282986111107 57.52777777777778)"/><path d="M622 220h78.5" stroke="#5e5e5e" stroke-width="2" fill="none"/><path d="M622.03 220.97H621v-1.94h1.03z" stroke="#5e5e5e" stroke-width=".05" fill="#5e5e5e"/><path d="M715.76 220l-14.26 4.63v-9.26z" stroke="#5e5e5e" stroke-width="2" fill="#5e5e5e"/><path d="M749.18-194.7A10 10 0 0 1 758-200h84a10 10 0 0 1 8.82 5.3l26.36 49.4a11.25 11.25 0 0 1 0 10.6l-26.36 49.4A10 10 0 0 1 842-80h-84a10 10 0 0 1-8.82-5.3l-26.36-49.4a11.25 11.25 0 0 1 0-10.6z" stroke="#3a414a" stroke-width="2" fill="#fff"/><use xlink:href="#i" transform="matrix(1,0,0,1,725,-195) translate(38.40560763888888 62.77777777777778)"/><path d="M1029.18 165.3a10 10 0 0 1 8.82-5.3h84a10 10 0 0 1 8.82 5.3l26.36 49.4a11.25 11.25 0 0 1 0 10.6l-26.36 49.4a10 10 0 0 1-8.82 5.3h-84a10 10 0 0 1-8.82-5.3l-26.36-49.4a11.25 11.25 0 0 1 0-10.6z" stroke="#3a414a" stroke-width="2" fill="#fff"/><use xlink:href="#j" transform="matrix(1,0,0,1,1005,165) translate(47.94336805555556 62.77777777777778)"/><path d="M800-78v38.5" stroke="#5e5e5e" stroke-width="2" fill="none"/><path d="M800.98-77.97H799V-79H801z" stroke="#5e5e5e" stroke-width=".05" fill="#5e5e5e"/><path d="M800-24.24l-4.63-14.26h9.26z" stroke="#5e5e5e" stroke-width="2" fill="#5e5e5e"/><path d="M720-14a6 6 0 0 1 6-6h148a6 6 0 0 1 6 6V94a6 6 0 0 1-6 6H726a6 6 0 0 1-6-6z" stroke="#3a414a" stroke-width="2" fill="#fff"/><use xlink:href="#k" transform="matrix(1,0,0,1,732,-8) translate(12.194878472222221 57.52777777777778)"/><path d="M800 102v38.5" stroke="#5e5e5e" stroke-width="2" fill="none"/><path d="M800.98 102.03H799V101H801z" stroke="#5e5e5e" stroke-width=".05" fill="#5e5e5e"/><path d="M800 155.76l-4.63-14.26h9.26z" stroke="#5e5e5e" stroke-width="2" fill="#5e5e5e"/><path d="M720 166a6 6 0 0 1 6-6h148a6 6 0 0 1 6 6v108a6 6 0 0 1-6 6H726a6 6 0 0 1-6-6z" stroke="#3a414a" stroke-width="2" fill="#fff"/><use xlink:href="#l" transform="matrix(1,0,0,1,732,172) translate(16.763020833333336 42.52777777777778)"/><use xlink:href="#m" transform="matrix(1,0,0,1,732,172) translate(38.529513888888886 69.41579861111111)"/><path d="M999.5 220h-100" stroke="#5e5e5e" stroke-width="2" fill="none"/><path d="M1000.5 220l.05.97h-1.08v-1.94h1.08z" stroke="#5e5e5e" stroke-width=".05" fill="#5e5e5e"/><path d="M884.24 220l14.26-4.63v9.26z" stroke="#5e5e5e" stroke-width="2" fill="#5e5e5e"/><path d="M800 282v58.5" stroke="#5e5e5e" stroke-width="2" fill="none"/><path d="M800.98 282.03H799V281H801z" stroke="#5e5e5e" stroke-width=".05" fill="#5e5e5e"/><path d="M800 355.76l-4.63-14.26h9.26z" stroke="#5e5e5e" stroke-width="2" fill="#5e5e5e"/><path d="M660 366a6 6 0 0 1 6-6h268a6 6 0 0 1 6 6v108a6 6 0 0 1-6 6H666a6 6 0 0 1-6-6z" stroke="#3a414a" stroke-width="2" fill="#fff"/><use xlink:href="#n" transform="matrix(1,0,0,1,672,372) translate(47.85677083333333 42.52777777777778)"/><use xlink:href="#o" transform="matrix(1,0,0,1,672,372) translate(80.93511284722223 69.41579861111111)"/><path d="M800 482v52.72" stroke="#5e5e5e" stroke-width="2" fill="none"/><path d="M800.98 482.03H799V481H801z" stroke="#5e5e5e" stroke-width=".05" fill="#5e5e5e"/><path d="M800 550l-4.63-14.28h9.26z" stroke="#5e5e5e" stroke-width="2" fill="#5e5e5e"/><path d="M660 560.22a6 6 0 0 1 6-6h268a6 6 0 0 1 6 6v119.56a6 6 0 0 1-6 6H666a6 6 0 0 1-6-6z" stroke="#3a414a" stroke-width="2" fill="#fff"/><use xlink:href="#p" transform="matrix(1,0,0,1,672,566.2239583333334) translate(77.13736979166666 35.02777777777778)"/><use xlink:href="#q" transform="matrix(1,0,0,1,672,566.2239583333334) translate(15.483723958333343 61.915798611111114)"/><use xlink:href="#r" transform="matrix(1,0,0,1,672,566.2239583333334) translate(172.12434895833331 61.915798611111114)"/><use xlink:href="#s" transform="matrix(1,0,0,1,672,566.2239583333334) translate(53.656467013888886 88.80381944444446)"/><use xlink:href="#t" transform="matrix(1,0,0,1,672,566.2239583333334) translate(85.52495659722221 88.80381944444446)"/><path d="M800 687.78v58.5" stroke="#5e5e5e" stroke-width="2" fill="none"/><path d="M800.98 687.8H799v-1.02H801z" stroke="#5e5e5e" stroke-width=".05" fill="#5e5e5e"/><path d="M800 761.54l-4.63-14.27h9.26z" stroke="#5e5e5e" stroke-width="2" fill="#5e5e5e"/><path d="M660 771.78a6 6 0 0 1 6-6h268a6 6 0 0 1 6 6v119.55a6 6 0 0 1-6 6H666a6 6 0 0 1-6-6z" stroke="#3a414a" stroke-width="2" fill="#fff"/><use xlink:href="#u" transform="matrix(1,0,0,1,672,777.7760416666667) translate(7.633246527777786 48.52777777777778)"/><use xlink:href="#v" transform="matrix(1,0,0,1,672,777.7760416666667) translate(120.70833333333334 48.52777777777778)"/><use xlink:href="#w" transform="matrix(1,0,0,1,672,777.7760416666667) translate(221.08810763888886 48.52777777777778)"/><use xlink:href="#x" transform="matrix(1,0,0,1,672,777.7760416666667) translate(67.24696180555556 75.41579861111111)"/><path d="M800 899.33v58.5" stroke="#5e5e5e" stroke-width="2" fill="none"/><path d="M800.98 899.35H799v-1.02H801z" stroke="#5e5e5e" stroke-width=".05" fill="#5e5e5e"/><path d="M800 973.1l-4.63-14.27h9.26z" stroke="#5e5e5e" stroke-width="2" fill="#5e5e5e"/><path d="M660 983.33a6 6 0 0 1 6-6h268a6 6 0 0 1 6 6v119.55a6 6 0 0 1-6 6H666a6 6 0 0 1-6-6z" stroke="#3a414a" stroke-width="2" fill="#fff"/><g><use xlink:href="#y" transform="matrix(1,0,0,1,672,989.3281250000001) translate(9.575520833333343 48.52777777777778)"/><use xlink:href="#z" transform="matrix(1,0,0,1,672,989.3281250000001) translate(117.55078125000001 48.52777777777778)"/><use xlink:href="#A" transform="matrix(1,0,0,1,672,989.3281250000001) translate(135.84505208333334 48.52777777777778)"/><use xlink:href="#B" transform="matrix(1,0,0,1,672,989.3281250000001) translate(16.55794270833333 75.41579861111111)"/><use xlink:href="#C" transform="matrix(1,0,0,1,672,989.3281250000001) translate(114.02973090277777 75.41579861111111)"/><use xlink:href="#D" transform="matrix(1,0,0,1,672,989.3281250000001) translate(159.34223090277777 75.41579861111111)"/></g><path d="M800 1110.88v80.42" stroke="#5e5e5e" stroke-width="2" fill="none"/><path d="M800.98 1110.9H799v-1.02H801z" stroke="#5e5e5e" stroke-width=".05" fill="#5e5e5e"/><path d="M800 1206.57l-4.63-14.27h9.26z" stroke="#5e5e5e" stroke-width="2" fill="#5e5e5e"/><path d="M896.15 1210.8c24.22 0 43.85 19.64 43.85 43.86 0 24.2-19.63 43.85-43.85 43.85h-192.3c-24.22 0-43.85-19.63-43.85-43.84 0-24.22 19.63-43.85 43.85-43.85z" stroke="#3a414a" stroke-width="2" fill="#fff"/><g><use xlink:href="#E" transform="matrix(1,0,0,1,672,1222.8055555555559) translate(33.89735243055557 41.52777777777778)"/><use xlink:href="#o" transform="matrix(1,0,0,1,672,1222.8055555555559) translate(127.9728732638889 41.52777777777778)"/></g><path d="M800-258v38.5" stroke="#5e5e5e" stroke-width="2" fill="none"/><path d="M800.98-257.97H799V-259H801z" stroke="#5e5e5e" stroke-width=".05" fill="#5e5e5e"/><path d="M800-204.24l-4.63-14.26h9.26z" stroke="#5e5e5e" stroke-width="2" fill="#5e5e5e"/><defs><path fill="#3a414a" d="M1046-1118V0H866v-952H339V0H158v-1118h888" id="F"/><path fill="#3a414a" d="M158 418v-1536h174v179h20c37-59 106-193 324-193 279 0 474 222 474 576 0 356-194 580-473 580-213 0-288-135-325-197h-14v591H158zm492-555c209 0 317-186 317-421 0-232-105-413-317-413-206 0-314 166-314 413 0 249 111 421 314 421" id="G"/><path fill="#3a414a" d="M613 24c-304 0-509-231-509-576 0-350 205-580 509-580 305 0 511 230 511 580 0 345-206 576-511 576zm0-161c226 0 329-195 329-415 0-222-103-419-329-419-223 0-326 196-326 419 0 220 103 415 326 415" id="H"/><path fill="#3a414a" d="M158 0v-1118h180v952h527v-952h181v952h147l-1 486h-180V0H158" id="I"/><path fill="#3a414a" d="M628 24c-324 0-524-230-524-574 0-343 198-582 503-582 237 0 487 146 487 559v75H286c9 234 145 362 343 362 132 0 231-58 273-172l174 48C1024-91 857 24 628 24zM287-650h624c-17-190-120-322-304-322-192 0-309 151-320 322" id="J"/><path fill="#3a414a" d="M613 24c-304 0-509-231-509-576 0-350 205-580 509-580 216 0 392 114 453 309l-173 49c-33-115-133-197-280-197-223 0-326 196-326 419 0 220 103 415 326 415 150 0 252-85 285-206l172 49C1010-95 832 24 613 24" id="K"/><g id="a"><use transform="matrix(0.010850694444444444,0,0,0.010850694444444444,0,0)" xlink:href="#F"/><use transform="matrix(0.010850694444444444,0,0,0.010850694444444444,13.06423611111111,0)" xlink:href="#G"/><use transform="matrix(0.010850694444444444,0,0,0.010850694444444444,26.671006944444443,0)" xlink:href="#H"/><use transform="matrix(0.010850694444444444,0,0,0.010850694444444444,39.99565972222222,0)" xlink:href="#I"/><use transform="matrix(0.010850694444444444,0,0,0.010850694444444444,53.26605902777778,0)" xlink:href="#J"/><use transform="matrix(0.010850694444444444,0,0,0.010850694444444444,66.22178819444444,0)" xlink:href="#K"/><use transform="matrix(0.010850694444444444,0,0,0.010850694444444444,78.91710069444444,0)" xlink:href="#K"/></g><path fill="#3a414a" d="M1053 0H872v-806h-13L329 0H158v-1118h180v809h13l532-809h170V0" id="L"/><path fill="#3a414a" d="M852-1118v166H338V0H158v-1118h694" id="M"/><path fill="#3a414a" d="M388 0v-957H20v-161h914v161H568V0H388" id="N"/><path fill="#3a414a" d="M158 0v-1118h457c242 0 397 118 397 298 0 131-85 205-218 232 129 19 261 115 261 288S916 0 686 0H158zm171-164h357c115 0 184-58 184-152 0-114-70-182-184-182H329v334zm0-485h287c134 0 215-60 215-156 0-93-82-149-216-149H329v305" id="O"/><path fill="#3a414a" d="M20 0v-166h40c130 0 171-81 186-454l20-498h754V0H839v-952H437l-17 394C398-160 328 21 20 0" id="P"/><path fill="#3a414a" d="M338-1118v477h534v-477h181V0H872v-475H338V0H158v-1118h180" id="Q"/><path fill="#3a414a" d="M977 0H798v-419H508L254 0H47l277-449C171-500 96-614 96-764c0-208 141-354 436-354h445V0zM798-570v-391H546c-192 0-270 73-270 197 0 123 78 194 268 194h254" id="R"/><g id="b"><use transform="matrix(0.010850694444444444,0,0,0.010850694444444444,0,0)" xlink:href="#F"/><use transform="matrix(0.010850694444444444,0,0,0.010850694444444444,13.06423611111111,0)" xlink:href="#G"/><use transform="matrix(0.010850694444444444,0,0,0.010850694444444444,26.671006944444443,0)" xlink:href="#L"/><use transform="matrix(0.010850694444444444,0,0,0.010850694444444444,39.811197916666664,0)" xlink:href="#M"/><use transform="matrix(0.010850694444444444,0,0,0.010850694444444444,49.13194444444444,0)" xlink:href="#H"/><use transform="matrix(0.010850694444444444,0,0,0.010850694444444444,62.45659722222222,0)" xlink:href="#N"/><use transform="matrix(0.010850694444444444,0,0,0.010850694444444444,72.43923611111111,0)" xlink:href="#H"/><use transform="matrix(0.010850694444444444,0,0,0.010850694444444444,85.76388888888889,0)" xlink:href="#O"/><use transform="matrix(0.010850694444444444,0,0,0.010850694444444444,98.31814236111111,0)" xlink:href="#P"/><use transform="matrix(0.010850694444444444,0,0,0.010850694444444444,111.10026041666666,0)" xlink:href="#J"/><use transform="matrix(0.010850694444444444,0,0,0.010850694444444444,124.05598958333334,0)" xlink:href="#Q"/><use transform="matrix(0.010850694444444444,0,0,0.010850694444444444,137.19618055555557,0)" xlink:href="#L"/><use transform="matrix(0.010850694444444444,0,0,0.010850694444444444,150.3363715277778,0)" xlink:href="#R"/></g><path fill="#3a414a" d="M338-717h293c264 0 409 149 409 355C1040-160 894 0 631 0H158v-1118h180v401zM1170 0v-1118h180V0h-180zM338-550v384h293c132 0 227-77 227-188 0-116-95-196-227-196H338" id="S"/><path fill="#3a414a" d="M158 0v-1118h180v484h112l398-484h228L630-577 1082 0H854L493-468H338V0H158" id="T"/><g id="c"><use transform="matrix(0.010850694444444444,0,0,0.010850694444444444,0,0)" xlink:href="#K"/><use transform="matrix(0.010850694444444444,0,0,0.010850694444444444,12.6953125,0)" xlink:href="#S"/><use transform="matrix(0.010850694444444444,0,0,0.010850694444444444,29.05815972222222,0)" xlink:href="#G"/><use transform="matrix(0.010850694444444444,0,0,0.010850694444444444,42.66493055555556,0)" xlink:href="#Q"/><use transform="matrix(0.010850694444444444,0,0,0.010850694444444444,55.80512152777778,0)" xlink:href="#L"/><use transform="matrix(0.010850694444444444,0,0,0.010850694444444444,68.9453125,0)" xlink:href="#T"/><use transform="matrix(0.010850694444444444,0,0,0.010850694444444444,80.49045138888889,0)" xlink:href="#H"/><use transform="matrix(0.010850694444444444,0,0,0.010850694444444444,93.81510416666666,0)" xlink:href="#O"/></g><path d="M338-1118v477h534v-477h181V0H872v-475H338V0H158v-1118h180" id="U"/><path d="M471 26C259 26 90-98 90-318c0-256 228-303 435-329 202-27 287-16 287-108 0-139-79-219-234-219-161 0-248 86-283 164l-173-57c86-203 278-265 451-265 150 0 419 46 419 395V0H815v-152h-12C765-73 660 26 471 26zm31-159c199 0 310-134 310-271v-155c-30 35-226 55-295 64-131 17-246 59-246 186 0 116 97 176 231 176" id="V"/><path d="M583-350c-259 0-425-137-425-410v-358h180v358c0 168 105 244 245 244 99 0 181-14 262-36v-566h180V0H845v-385c-79 22-162 35-262 35" id="W"/><path d="M20 0v-166h40c130 0 171-81 186-454l20-498h754V0H839v-952H437l-17 394C398-160 328 21 20 0" id="X"/><path d="M613 24c-304 0-509-231-509-576 0-350 205-580 509-580 305 0 511 230 511 580 0 345-206 576-511 576zm0-161c226 0 329-195 329-415 0-222-103-419-329-419-223 0-326 196-326 419 0 220 103 415 326 415" id="Y"/><g id="e"><use transform="matrix(0.010850694444444444,0,0,0.010850694444444444,0,0)" xlink:href="#U"/><use transform="matrix(0.010850694444444444,0,0,0.010850694444444444,13.140190972222221,0)" xlink:href="#V"/><use transform="matrix(0.010850694444444444,0,0,0.010850694444444444,25.618489583333332,0)" xlink:href="#W"/><use transform="matrix(0.010850694444444444,0,0,0.010850694444444444,38.45486111111111,0)" xlink:href="#V"/><use transform="matrix(0.010850694444444444,0,0,0.010850694444444444,50.93315972222221,0)" xlink:href="#X"/><use transform="matrix(0.010850694444444444,0,0,0.010850694444444444,63.71527777777778,0)" xlink:href="#Y"/></g><path d="M977 0H798v-419H508L254 0H47l277-449C171-500 96-614 96-764c0-208 141-354 436-354h445V0zM798-570v-391H546c-192 0-270 73-270 197 0 123 78 194 268 194h254" id="Z"/><path d="M1053 0H872v-806h-13L329 0H158v-1118h180v809h13l532-809h170V0zM605-1275c-162 0-290-124-290-283h132c0 91 66 155 158 155s158-64 158-155h132c0 158-127 283-290 283" id="aa"/><path d="M158 0v-1118h180v952h527v-952h181v952h147l-1 486h-180V0H158" id="ab"/><g id="f"><use transform="matrix(0.010850694444444444,0,0,0.010850694444444444,0,0)" xlink:href="#Z"/><use transform="matrix(0.010850694444444444,0,0,0.010850694444444444,12.315538194444445,0)" xlink:href="#aa"/><use transform="matrix(0.010850694444444444,0,0,0.010850694444444444,25.455729166666664,0)" xlink:href="#ab"/><use transform="matrix(0.010850694444444444,0,0,0.010850694444444444,38.72612847222222,0)" xlink:href="#V"/></g><path d="M613 24c-304 0-509-231-509-576 0-350 205-580 509-580 216 0 392 114 453 309l-173 49c-33-115-133-197-280-197-223 0-326 196-326 419 0 220 103 415 326 415 150 0 252-85 285-206l172 49C1010-95 832 24 613 24" id="ac"/><path d="M65 0l393-574-370-544h210c88 136 192 297 267 435 67-142 176-302 264-435h206L661-564 1053 0H844c-94-144-206-310-287-458C484-308 366-142 273 0H65" id="ad"/><path d="M158 418v-1536h174v179h20c37-59 106-193 324-193 279 0 474 222 474 576 0 356-194 580-473 580-213 0-288-135-325-197h-14v591H158zm492-555c209 0 317-186 317-421 0-232-105-413-317-413-206 0-314 166-314 413 0 249 111 421 314 421" id="ae"/><g id="g"><use transform="matrix(0.010850694444444444,0,0,0.010850694444444444,0,0)" xlink:href="#ac"/><use transform="matrix(0.010850694444444444,0,0,0.010850694444444444,12.91232638888889,0)" xlink:href="#V"/><use transform="matrix(0.010850694444444444,0,0,0.010850694444444444,25.390625,0)" xlink:href="#ad"/><use transform="matrix(0.010850694444444444,0,0,0.010850694444444444,37.521701388888886,0)" xlink:href="#V"/><use transform="matrix(0.010850694444444444,0,0,0.010850694444444444,50,0)" xlink:href="#ae"/></g><path d="M158 0v-1118h270c115 298 279 624 361 942 79-316 244-646 356-942h274V0h-181c1-327-2-645 4-968-88 330-255 658-376 968H708C586-305 423-627 332-951c8 309 4 634 5 951H158" id="af"/><path d="M628 24c-324 0-524-230-524-574 0-343 198-582 503-582 237 0 487 146 487 559v75H286c9 234 145 362 343 362 132 0 231-58 273-172l174 48C1024-91 857 24 628 24zM287-650h624c-17-190-120-322-304-322-192 0-309 151-320 322" id="ag"/><path d="M158-1118h180v952h414v-952h180v952h414v-952h180V0H158v-1118" id="ah"/><path d="M388 0v-957H20v-161h914v161H568V0H388" id="ai"/><path d="M338-717h293c264 0 409 149 409 355C1040-160 894 0 631 0H158v-1118h180v401zm0 167v384h293c132 0 227-77 227-188 0-116-95-196-227-196H338" id="aj"/><g id="h"><use transform="matrix(0.010850694444444444,0,0,0.010850694444444444,0,0)" xlink:href="#ac"/><use transform="matrix(0.010850694444444444,0,0,0.010850694444444444,12.6953125,0)" xlink:href="#af"/><use transform="matrix(0.010850694444444444,0,0,0.010850694444444444,29.80685763888889,0)" xlink:href="#ag"/><use transform="matrix(0.010850694444444444,0,0,0.010850694444444444,42.76258680555556,0)" xlink:href="#ah"/><use transform="matrix(0.010850694444444444,0,0,0.010850694444444444,61.03515625,0)" xlink:href="#V"/><use transform="matrix(0.010850694444444444,0,0,0.010850694444444444,73.51345486111111,0)" xlink:href="#ai"/><use transform="matrix(0.010850694444444444,0,0,0.010850694444444444,84.21223958333334,0)" xlink:href="#aj"/></g><path d="M158 0v-1118h457c242 0 397 118 397 298 0 131-85 205-218 232 129 19 261 115 261 288S916 0 686 0H158zm171-164h357c115 0 184-58 184-152 0-114-70-182-184-182H329v334zm0-485h287c134 0 215-60 215-156 0-93-82-149-216-149H329v305" id="ak"/><path d="M852-1118v166H338V0H158v-1118h694" id="al"/><g id="i"><use transform="matrix(0.010850694444444444,0,0,0.010850694444444444,0,0)" xlink:href="#ai"/><use transform="matrix(0.010850694444444444,0,0,0.010850694444444444,10.698784722222221,0)" xlink:href="#ak"/><use transform="matrix(0.010850694444444444,0,0,0.010850694444444444,23.253038194444443,0)" xlink:href="#Y"/><use transform="matrix(0.010850694444444444,0,0,0.010850694444444444,36.57769097222222,0)" xlink:href="#ae"/><use transform="matrix(0.010850694444444444,0,0,0.010850694444444444,50.18446180555556,0)" xlink:href="#Y"/><use transform="matrix(0.010850694444444444,0,0,0.010850694444444444,63.50911458333333,0)" xlink:href="#al"/></g><path d="M140 405l46-156c120 36 205 19 263-150l32-93L54-1118h197c107 313 237 620 324 950 87-331 219-637 326-950h196L606 167c-68 178-176 259-334 259-64 0-113-12-132-21" id="am"/><path d="M158 0v-1118h180v484h112l398-484h228L630-577 1082 0H854L493-468H338V0H158" id="an"/><g id="j"><use transform="matrix(0.010850694444444444,0,0,0.010850694444444444,0,0)" xlink:href="#af"/><use transform="matrix(0.010850694444444444,0,0,0.010850694444444444,17.11154513888889,0)" xlink:href="#am"/><use transform="matrix(0.010850694444444444,0,0,0.010850694444444444,29.600694444444443,0)" xlink:href="#an"/><use transform="matrix(0.010850694444444444,0,0,0.010850694444444444,41.64496527777777,0)" xlink:href="#V"/></g><g id="k"><use transform="matrix(0.010850694444444444,0,0,0.010850694444444444,0,0)" xlink:href="#ae"/><use transform="matrix(0.010850694444444444,0,0,0.010850694444444444,13.823784722222221,0)" xlink:href="#V"/><use transform="matrix(0.010850694444444444,0,0,0.010850694444444444,26.302083333333332,0)" xlink:href="#ac"/><use transform="matrix(0.010850694444444444,0,0,0.010850694444444444,38.99739583333333,0)" xlink:href="#ai"/><use transform="matrix(0.010850694444444444,0,0,0.010850694444444444,48.98003472222221,0)" xlink:href="#ag"/><use transform="matrix(0.010850694444444444,0,0,0.010850694444444444,61.93576388888888,0)" xlink:href="#ae"/><use transform="matrix(0.010850694444444444,0,0,0.010850694444444444,75.54253472222221,0)" xlink:href="#ag"/><use transform="matrix(0.010850694444444444,0,0,0.010850694444444444,88.49826388888889,0)" xlink:href="#ai"/><use transform="matrix(0.010850694444444444,0,0,0.010850694444444444,99.19704861111111,0)" xlink:href="#aj"/></g><path d="M504 13C281 13 99-100 94-275h184c5 76 107 135 226 135 133 0 226-77 226-180 0-109-97-184-251-184h-73v-134h73c126 0 221-70 221-175 0-100-77-170-191-170-112 0-213 61-216 153H119c4-179 180-300 392-300 224 0 365 139 365 309 0 133-94 218-214 241v8c171 27 258 126 258 264 0 186-174 321-416 321" id="ao"/><path d="M1053 0H872v-806h-13L329 0H158v-1118h180v809h13l532-809h170V0" id="ap"/><g id="l"><use transform="matrix(0.010850694444444444,0,0,0.010850694444444444,0,0)" xlink:href="#ao"/><use transform="matrix(0.010850694444444444,0,0,0.010850694444444444,10.980902777777777,0)" xlink:href="#V"/><use transform="matrix(0.010850694444444444,0,0,0.010850694444444444,23.45920138888889,0)" xlink:href="#af"/><use transform="matrix(0.010850694444444444,0,0,0.010850694444444444,40.57074652777777,0)" xlink:href="#ag"/><use transform="matrix(0.010850694444444444,0,0,0.010850694444444444,53.526475694444436,0)" xlink:href="#ac"/><use transform="matrix(0.010850694444444444,0,0,0.010850694444444444,66.22178819444443,0)" xlink:href="#ap"/><use transform="matrix(0.010850694444444444,0,0,0.010850694444444444,79.36197916666666,0)" xlink:href="#ai"/><use transform="matrix(0.010850694444444444,0,0,0.010850694444444444,90.06076388888889,0)" xlink:href="#aj"/></g><g id="m"><use transform="matrix(0.010850694444444444,0,0,0.010850694444444444,0,0)" xlink:href="#ai"/><use transform="matrix(0.010850694444444444,0,0,0.010850694444444444,9.98263888888889,0)" xlink:href="#ag"/><use transform="matrix(0.010850694444444444,0,0,0.010850694444444444,22.938368055555554,0)" xlink:href="#ac"/><use transform="matrix(0.010850694444444444,0,0,0.010850694444444444,35.63368055555556,0)" xlink:href="#ai"/><use transform="matrix(0.010850694444444444,0,0,0.010850694444444444,45.61631944444444,0)" xlink:href="#Y"/></g><path d="M616 382V24c-304 0-512-231-512-576 0-350 208-580 512-580v-358h181v358c305 0 512 230 512 580 0 345-207 576-512 576v358H616zm181-519c225 0 331-195 331-415 0-222-106-419-331-419v834zm-181 0v-834c-224 0-329 197-329 419 0 219 105 415 329 415" id="aq"/><g id="n"><use transform="matrix(0.010850694444444444,0,0,0.010850694444444444,0,0)" xlink:href="#ac"/><use transform="matrix(0.010850694444444444,0,0,0.010850694444444444,12.6953125,0)" xlink:href="#aq"/><use transform="matrix(0.010850694444444444,0,0,0.010850694444444444,28.02734375,0)" xlink:href="#Y"/><use transform="matrix(0.010850694444444444,0,0,0.010850694444444444,41.35199652777778,0)" xlink:href="#ae"/><use transform="matrix(0.010850694444444444,0,0,0.010850694444444444,54.95876736111112,0)" xlink:href="#af"/><use transform="matrix(0.010850694444444444,0,0,0.010850694444444444,72.0703125,0)" xlink:href="#ap"/><use transform="matrix(0.010850694444444444,0,0,0.010850694444444444,85.21050347222223,0)" xlink:href="#ae"/><use transform="matrix(0.010850694444444444,0,0,0.010850694444444444,98.81727430555556,0)" xlink:href="#Y"/><use transform="matrix(0.010850694444444444,0,0,0.010850694444444444,112.14192708333333,0)" xlink:href="#ak"/><use transform="matrix(0.010850694444444444,0,0,0.010850694444444444,124.69618055555556,0)" xlink:href="#V"/><use transform="matrix(0.010850694444444444,0,0,0.010850694444444444,137.17447916666666,0)" xlink:href="#ai"/><use transform="matrix(0.010850694444444444,0,0,0.010850694444444444,147.87326388888889,0)" xlink:href="#aj"/></g><path d="M338-717h293c264 0 409 149 409 355C1040-160 894 0 631 0H158v-1118h180v401zM1170 0v-1118h180V0h-180zM338-550v384h293c132 0 227-77 227-188 0-116-95-196-227-196H338" id="ar"/><g id="o"><use transform="matrix(0.010850694444444444,0,0,0.010850694444444444,0,0)" xlink:href="#ac"/><use transform="matrix(0.010850694444444444,0,0,0.010850694444444444,12.6953125,0)" xlink:href="#ar"/><use transform="matrix(0.010850694444444444,0,0,0.010850694444444444,29.05815972222222,0)" xlink:href="#ae"/><use transform="matrix(0.010850694444444444,0,0,0.010850694444444444,42.66493055555556,0)" xlink:href="#U"/><use transform="matrix(0.010850694444444444,0,0,0.010850694444444444,55.80512152777778,0)" xlink:href="#ap"/><use transform="matrix(0.010850694444444444,0,0,0.010850694444444444,68.9453125,0)" xlink:href="#an"/><use transform="matrix(0.010850694444444444,0,0,0.010850694444444444,80.98958333333333,0)" xlink:href="#ap"/></g><path d="M38 321v-487h92c91-92 130-206 156-514l37-438h721v952h170v487h-179V0H218v321H38zm296-487h531v-786H486c-25 270-41 659-152 786" id="as"/><path d="M993-1535l88 111c-103 99-256 94-455 101-229 8-342 151-365 447h14c74-139 216-204 371-204 263 0 463 187 463 537S910 24 609 24c-303 0-505-216-505-630v-116c0-497 169-758 515-768 139-7 304 19 374-45zM610-137c197 0 317-159 317-406 0-239-120-377-321-377-195 0-319 138-319 377 0 245 122 406 323 406" id="at"/><g id="p"><use transform="matrix(0.010850694444444444,0,0,0.010850694444444444,0,0)" xlink:href="#as"/><use transform="matrix(0.010850694444444444,0,0,0.010850694444444444,13.953993055555555,0)" xlink:href="#Y"/><use transform="matrix(0.010850694444444444,0,0,0.010850694444444444,27.278645833333332,0)" xlink:href="#at"/><use transform="matrix(0.010850694444444444,0,0,0.010850694444444444,40.44053819444444,0)" xlink:href="#V"/><use transform="matrix(0.010850694444444444,0,0,0.010850694444444444,52.91883680555556,0)" xlink:href="#ak"/><use transform="matrix(0.010850694444444444,0,0,0.010850694444444444,65.47309027777777,0)" xlink:href="#ap"/><use transform="matrix(0.010850694444444444,0,0,0.010850694444444444,78.61328125,0)" xlink:href="#ai"/><use transform="matrix(0.010850694444444444,0,0,0.010850694444444444,89.31206597222221,0)" xlink:href="#aj"/></g><g id="q"><use transform="matrix(0.010850694444444444,0,0,0.010850694444444444,0,0)" xlink:href="#ae"/><use transform="matrix(0.010850694444444444,0,0,0.010850694444444444,13.823784722222221,0)" xlink:href="#V"/><use transform="matrix(0.010850694444444444,0,0,0.010850694444444444,26.302083333333332,0)" xlink:href="#ac"/><use transform="matrix(0.010850694444444444,0,0,0.010850694444444444,38.99739583333333,0)" xlink:href="#ai"/><use transform="matrix(0.010850694444444444,0,0,0.010850694444444444,49.69618055555556,0)" xlink:href="#ap"/><use transform="matrix(0.010850694444444444,0,0,0.010850694444444444,62.83637152777778,0)" xlink:href="#ai"/><use transform="matrix(0.010850694444444444,0,0,0.010850694444444444,72.81901041666666,0)" xlink:href="#ag"/><use transform="matrix(0.010850694444444444,0,0,0.010850694444444444,85.77473958333333,0)" xlink:href="#X"/><use transform="matrix(0.010850694444444444,0,0,0.010850694444444444,98.55685763888889,0)" xlink:href="#aj"/><use transform="matrix(0.010850694444444444,0,0,0.010850694444444444,110.97005208333333,0)" xlink:href="#U"/><use transform="matrix(0.010850694444444444,0,0,0.010850694444444444,124.11024305555556,0)" xlink:href="#Y"/><use transform="matrix(0.010850694444444444,0,0,0.010850694444444444,137.43489583333331,0)" xlink:href="#ag"/></g><g id="r"><use transform="matrix(0.010850694444444444,0,0,0.010850694444444444,0,0)" xlink:href="#af"/><use transform="matrix(0.010850694444444444,0,0,0.010850694444444444,17.11154513888889,0)" xlink:href="#V"/><use transform="matrix(0.010850694444444444,0,0,0.010850694444444444,29.58984375,0)" xlink:href="#ac"/><use transform="matrix(0.010850694444444444,0,0,0.010850694444444444,42.28515625,0)" xlink:href="#X"/><use transform="matrix(0.010850694444444444,0,0,0.010850694444444444,55.06727430555556,0)" xlink:href="#Y"/></g><g id="s"><use transform="matrix(0.010850694444444444,0,0,0.010850694444444444,0,0)" xlink:href="#U"/><use transform="matrix(0.010850694444444444,0,0,0.010850694444444444,13.140190972222221,0)" xlink:href="#V"/></g><g id="t"><use transform="matrix(0.010850694444444444,0,0,0.010850694444444444,0,0)" xlink:href="#ac"/><use transform="matrix(0.010850694444444444,0,0,0.010850694444444444,12.6953125,0)" xlink:href="#an"/><use transform="matrix(0.010850694444444444,0,0,0.010850694444444444,24.24045138888889,0)" xlink:href="#Y"/><use transform="matrix(0.010850694444444444,0,0,0.010850694444444444,37.565104166666664,0)" xlink:href="#ak"/><use transform="matrix(0.010850694444444444,0,0,0.010850694444444444,50.119357638888886,0)" xlink:href="#Y"/><use transform="matrix(0.010850694444444444,0,0,0.010850694444444444,63.444010416666664,0)" xlink:href="#ae"/><use transform="matrix(0.010850694444444444,0,0,0.010850694444444444,77.05078125,0)" xlink:href="#Y"/><use transform="matrix(0.010850694444444444,0,0,0.010850694444444444,90.37543402777777,0)" xlink:href="#as"/><use transform="matrix(0.010850694444444444,0,0,0.010850694444444444,104.32942708333333,0)" xlink:href="#am"/></g><path d="M65 0l449-569-443-549h213l368 475h89v-475h180v475h87l366-475h215l-442 549L1594 0h-217l-371-477h-85V0H741v-477h-85L283 0H65" id="au"/><g id="u"><use transform="matrix(0.010850694444444444,0,0,0.010850694444444444,0,0)" xlink:href="#Y"/><use transform="matrix(0.010850694444444444,0,0,0.010850694444444444,13.324652777777777,0)" xlink:href="#at"/><use transform="matrix(0.010850694444444444,0,0,0.010850694444444444,26.48654513888889,0)" xlink:href="#au"/><use transform="matrix(0.010850694444444444,0,0,0.010850694444444444,44.48784722222221,0)" xlink:href="#V"/><use transform="matrix(0.010850694444444444,0,0,0.010850694444444444,56.96614583333333,0)" xlink:href="#ae"/><use transform="matrix(0.010850694444444444,0,0,0.010850694444444444,70.57291666666666,0)" xlink:href="#ap"/><use transform="matrix(0.010850694444444444,0,0,0.010850694444444444,83.71310763888889,0)" xlink:href="#ai"/><use transform="matrix(0.010850694444444444,0,0,0.010850694444444444,94.41189236111111,0)" xlink:href="#aj"/></g><g id="v"><use transform="matrix(0.010850694444444444,0,0,0.010850694444444444,0,0)" xlink:href="#ac"/><use transform="matrix(0.010850694444444444,0,0,0.010850694444444444,12.6953125,0)" xlink:href="#ar"/><use transform="matrix(0.010850694444444444,0,0,0.010850694444444444,29.05815972222222,0)" xlink:href="#ae"/><use transform="matrix(0.010850694444444444,0,0,0.010850694444444444,42.66493055555556,0)" xlink:href="#U"/><use transform="matrix(0.010850694444444444,0,0,0.010850694444444444,55.80512152777778,0)" xlink:href="#ap"/><use transform="matrix(0.010850694444444444,0,0,0.010850694444444444,68.9453125,0)" xlink:href="#an"/><use transform="matrix(0.010850694444444444,0,0,0.010850694444444444,80.98958333333333,0)" xlink:href="#ap"/></g><g id="w"><use transform="matrix(0.010850694444444444,0,0,0.010850694444444444,0,0)" xlink:href="#as"/><use transform="matrix(0.010850694444444444,0,0,0.010850694444444444,13.953993055555555,0)" xlink:href="#Y"/></g><g id="x"><use transform="matrix(0.010850694444444444,0,0,0.010850694444444444,0,0)" xlink:href="#al"/><use transform="matrix(0.010850694444444444,0,0,0.010850694444444444,9.320746527777779,0)" xlink:href="#Y"/><use transform="matrix(0.010850694444444444,0,0,0.010850694444444444,22.645399305555554,0)" xlink:href="#ai"/><use transform="matrix(0.010850694444444444,0,0,0.010850694444444444,32.62803819444444,0)" xlink:href="#Y"/><use transform="matrix(0.010850694444444444,0,0,0.010850694444444444,45.95269097222222,0)" xlink:href="#ak"/><use transform="matrix(0.010850694444444444,0,0,0.010850694444444444,58.50694444444444,0)" xlink:href="#U"/><use transform="matrix(0.010850694444444444,0,0,0.010850694444444444,71.64713541666666,0)" xlink:href="#Y"/><use transform="matrix(0.010850694444444444,0,0,0.010850694444444444,84.97178819444443,0)" xlink:href="#ac"/><use transform="matrix(0.010850694444444444,0,0,0.010850694444444444,97.66710069444441,0)" xlink:href="#ai"/><use transform="matrix(0.010850694444444444,0,0,0.010850694444444444,108.36588541666666,0)" xlink:href="#ap"/></g><g id="y"><use transform="matrix(0.010850694444444444,0,0,0.010850694444444444,0,0)" xlink:href="#as"/><use transform="matrix(0.010850694444444444,0,0,0.010850694444444444,13.953993055555555,0)" xlink:href="#Y"/><use transform="matrix(0.010850694444444444,0,0,0.010850694444444444,27.278645833333332,0)" xlink:href="#at"/><use transform="matrix(0.010850694444444444,0,0,0.010850694444444444,40.44053819444444,0)" xlink:href="#V"/><use transform="matrix(0.010850694444444444,0,0,0.010850694444444444,52.91883680555556,0)" xlink:href="#ak"/><use transform="matrix(0.010850694444444444,0,0,0.010850694444444444,65.47309027777777,0)" xlink:href="#ap"/><use transform="matrix(0.010850694444444444,0,0,0.010850694444444444,78.61328125,0)" xlink:href="#ai"/><use transform="matrix(0.010850694444444444,0,0,0.010850694444444444,89.31206597222221,0)" xlink:href="#aj"/></g><use transform="matrix(0.010850694444444444,0,0,0.010850694444444444,0,0)" xlink:href="#an" id="z"/><g id="A"><use transform="matrix(0.010850694444444444,0,0,0.010850694444444444,0,0)" xlink:href="#ac"/><use transform="matrix(0.010850694444444444,0,0,0.010850694444444444,12.6953125,0)" xlink:href="#ar"/><use transform="matrix(0.010850694444444444,0,0,0.010850694444444444,29.05815972222222,0)" xlink:href="#ae"/><use transform="matrix(0.010850694444444444,0,0,0.010850694444444444,42.66493055555556,0)" xlink:href="#U"/><use transform="matrix(0.010850694444444444,0,0,0.010850694444444444,55.80512152777778,0)" xlink:href="#ap"/><use transform="matrix(0.010850694444444444,0,0,0.010850694444444444,68.9453125,0)" xlink:href="#an"/><use transform="matrix(0.010850694444444444,0,0,0.010850694444444444,80.98958333333333,0)" xlink:href="#V"/><use transform="matrix(0.010850694444444444,0,0,0.010850694444444444,93.46788194444444,0)" xlink:href="#af"/></g><g id="B"><use transform="matrix(0.010850694444444444,0,0,0.010850694444444444,0,0)" xlink:href="#ac"/><use transform="matrix(0.010850694444444444,0,0,0.010850694444444444,12.6953125,0)" xlink:href="#af"/><use transform="matrix(0.010850694444444444,0,0,0.010850694444444444,29.80685763888889,0)" xlink:href="#ag"/><use transform="matrix(0.010850694444444444,0,0,0.010850694444444444,42.76258680555556,0)" xlink:href="#ai"/><use transform="matrix(0.010850694444444444,0,0,0.010850694444444444,53.11414930555556,0)" xlink:href="#V"/><use transform="matrix(0.010850694444444444,0,0,0.010850694444444444,65.59244791666667,0)" xlink:href="#U"/><use transform="matrix(0.010850694444444444,0,0,0.010850694444444444,78.73263888888889,0)" xlink:href="#am"/></g><g id="C"><use transform="matrix(0.010850694444444444,0,0,0.010850694444444444,0,0)" xlink:href="#ap"/><use transform="matrix(0.010850694444444444,0,0,0.010850694444444444,13.140190972222221,0)" xlink:href="#X"/><use transform="matrix(0.010850694444444444,0,0,0.010850694444444444,25.92230902777778,0)" xlink:href="#ap"/></g><g id="D"><use transform="matrix(0.010850694444444444,0,0,0.010850694444444444,0,0)" xlink:href="#aq"/><use transform="matrix(0.010850694444444444,0,0,0.010850694444444444,15.33203125,0)" xlink:href="#ae"/><use transform="matrix(0.010850694444444444,0,0,0.010850694444444444,28.504774305555554,0)" xlink:href="#am"/><use transform="matrix(0.010850694444444444,0,0,0.010850694444444444,40.99392361111111,0)" xlink:href="#an"/><use transform="matrix(0.010850694444444444,0,0,0.010850694444444444,53.03819444444444,0)" xlink:href="#ai"/><use transform="matrix(0.010850694444444444,0,0,0.010850694444444444,63.736979166666664,0)" xlink:href="#ar"/></g><g id="E"><use transform="matrix(0.010850694444444444,0,0,0.010850694444444444,0,0)" xlink:href="#al"/><use transform="matrix(0.010850694444444444,0,0,0.010850694444444444,9.320746527777779,0)" xlink:href="#Y"/><use transform="matrix(0.010850694444444444,0,0,0.010850694444444444,22.645399305555554,0)" xlink:href="#ai"/><use transform="matrix(0.010850694444444444,0,0,0.010850694444444444,32.62803819444444,0)" xlink:href="#Y"/><use transform="matrix(0.010850694444444444,0,0,0.010850694444444444,45.95269097222222,0)" xlink:href="#ak"/><use transform="matrix(0.010850694444444444,0,0,0.010850694444444444,58.50694444444444,0)" xlink:href="#ar"/><use transform="matrix(0.010850694444444444,0,0,0.010850694444444444,74.86979166666666,0)" xlink:href="#ag"/></g></defs></g></svg>